#!OML:ASF F:\VICON\USERDATA\INSTALL\rory3\rory3.ASF
:FULLY-SPECIFIED
:DEGREES
211
root -1.21877 16.2742 -9.44564 1.51466 2.81034 2.79786
lowerback 12.8551 -0.734136 -7.31186
upperback -4.44388 -2.05814 2.05563
thorax -11.8375 -0.322667 6.89
lowerneck -10.164 -5.59508 -3.9813
upperneck 18.8796 -7.71979 3.46356
head 7.78567 -3.6516 1.0329
rclavicle 1.04362e-014 -8.74653e-015
rhumerus -42.824 -11.1581 -76.9798
rradius 17.5359
rwrist 17.7907
rhand -8.67579 19.0655
rfingers 7.12502
rthumb 17.2585 -10.1882
lclavicle 1.04362e-014 -8.74653e-015
lhumerus -39.5268 7.4596 84.2563
lradius 20.1991
lwrist -5.39719
lhand -4.6761 17.7246
lfingers 7.12502
lthumb 21.1046 46.596
rfemur -27.5867 15.2347 18.8528
rtibia 36.8479
rfoot -11.0081 -11.0398
rtoes 39.3621
lfemur 0.790064 -2.16759 -22.7833
ltibia 47.2119
lfoot 6.80467 -1.03594
ltoes -11.2545
212
root -1.24779 16.2815 -9.32525 1.52485 3.01519 2.38926
lowerback 12.9177 -0.75857 -6.98087
upperback -4.45683 -2.02264 2.1824
thorax -11.8983 -0.321147 6.83814
lowerneck -10.3602 -5.58982 -4.08736
upperneck 19.2026 -7.70366 3.47895
head 7.93239 -3.64363 1.0478
rclavicle -7.55382e-015 7.15625e-015
rhumerus -42.507 -10.7773 -77.1976
rradius 17.6813
rwrist 17.087
rhand -8.59644 19.2759
rfingers 7.12502
rthumb 17.3349 -9.97105
lclavicle -7.55382e-015 7.15625e-015
lhumerus -39.6497 7.21383 84.426
lradius 20.0482
lwrist -5.53605
lhand -4.57548 18.0432
lfingers 7.12502
lthumb 21.2012 46.9038
rfemur -26.8255 15.0392 19.577
rtibia 36.4066
rfoot -11.2927 -10.8904
rtoes 39.8365
lfemur -1.17163 -1.79496 -21.9668
ltibia 50.3673
lfoot 8.9571 -1.00148
ltoes -9.4979
213
root -1.27614 16.2948 -9.2035 1.51561 3.166 1.98125
lowerback 12.9585 -0.763604 -6.62284
upperback -4.47074 -1.95782 2.27518
thorax -11.9534 -0.309974 6.72497
lowerneck -10.2623 -5.62728 -4.21718
upperneck 19.2459 -7.76578 3.61767
head 7.94296 -3.67037 1.10996
rclavicle -4.96962e-016 -7.95139e-016
rhumerus -42.314 -10.4498 -77.3734
rradius 17.8794
rwrist 16.7971
rhand -8.92905 19.8911
rfingers 7.12502
rthumb 17.0147 -9.38372
lclavicle -4.96962e-016 -7.95139e-016
lhumerus -39.782 6.94991 84.5249
lradius 19.8799
lwrist -5.82475
lhand -4.47988 18.4131
lfingers 7.12502
lthumb 21.2931 47.2634
rfemur -26.0436 14.9018 20.3213
rtibia 35.9985
rfoot -11.448 -10.9517
rtoes 39.0841
lfemur -3.14893 -1.32823 -21.1713
ltibia 53.4193
lfoot 11.4422 -0.689049
ltoes -8.9164
214
root -1.30438 16.3111 -9.08141 1.51678 3.34797 1.7683
lowerback 12.8893 -0.741643 -6.49614
upperback -4.42489 -1.89361 2.32976
thorax -11.8705 -0.292251 6.69404
lowerneck -10.3323 -5.67826 -4.20402
upperneck 19.2848 -7.82983 3.58156
head 7.96924 -3.70143 1.08673
rclavicle 2.45499e-014 -1.98785e-014
rhumerus -42.0567 -10.2807 -77.4227
rradius 18.1354
rwrist 16.8254
rhand -8.92511 20.2391
rfingers 7.12502
rthumb 17.0185 -9.03545
lclavicle 2.45499e-014 -1.98785e-014
lhumerus -39.9176 6.75708 84.6543
lradius 19.9485
lwrist -5.86612
lhand -4.48596 18.5319
lfingers 7.12502
lthumb 21.2872 47.3829
rfemur -25.2896 14.8007 20.8077
rtibia 35.6255
rfoot -11.906 -10.854
rtoes 39.2992
lfemur -5.11056 -0.971128 -20.6634
ltibia 56.3351
lfoot 13.3889 0.191021
ltoes -5.98778
215
root -1.32794 16.3227 -8.96327 1.53643 3.50277 1.75616
lowerback 12.8886 -0.680049 -6.53892
upperback -4.4089 -1.81651 2.34115
thorax -11.8636 -0.25256 6.71399
lowerneck -10.2779 -5.79335 -4.1325
upperneck 19.1397 -7.97118 3.45695
head 7.9089 -3.77712 1.02243
rclavicle -6.73383e-015 -3.97569e-015
rhumerus -41.7577 -9.86187 -77.618
rradius 18.3878
rwrist 16.413
rhand -8.63439 19.7804
rfingers 7.12502
rthumb 17.2983 -9.46972
lclavicle -6.73383e-015 -3.97569e-015
lhumerus -40.0521 6.53239 84.8654
lradius 20.0258
lwrist -5.77822
lhand -4.60724 18.5839
lfingers 7.12502
lthumb 21.1707 47.4479
rfemur -24.5292 14.5873 21.0722
rtibia 35.2906
rfoot -12.4286 -10.4777
rtoes 40.2089
lfemur -7.09091 -0.548919 -20.4261
ltibia 59.1089
lfoot 13.6662 1.28712
ltoes -1.36624
216
root -1.34601 16.3246 -8.84749 1.4789 3.30974 1.58975
lowerback 13.0929 -0.5013 -6.4185
upperback -4.42267 -1.5649 2.36243
thorax -12.0456 -0.131366 6.62331
lowerneck -10.1896 -5.95351 -4.02921
upperneck 18.9496 -8.19337 3.39545
head 7.83201 -3.88428 0.966987
rclavicle -5.19325e-015 5.96354e-015
rhumerus -41.5337 -9.12586 -78.0587
rradius 18.7568
rwrist 15.5561
rhand -8.29225 19.2376
rfingers 7.12502
rthumb 17.6276 -9.98329
lclavicle -5.19325e-015 5.96354e-015
lhumerus -40.2346 5.98014 85.257
lradius 20.3456
lwrist -5.21811
lhand -4.5319 18.9881
lfingers 7.12502
lthumb 21.2431 47.844
rfemur -23.7776 14.4099 21.5456
rtibia 35.0083
rfoot -12.6352 -10.0496
rtoes 40.0541
lfemur -8.92484 0.200427 -20.0654
ltibia 61.7361
lfoot 13.325 1.70832
ltoes 3.73695
217
root -1.36353 16.3341 -8.72931 1.41809 3.08071 1.36699
lowerback 13.2082 -0.30539 -6.23461
upperback -4.41282 -1.27409 2.36368
thorax -12.1532 -0.00261609 6.4581
lowerneck -9.9133 -6.02244 -4.00393
upperneck 18.7279 -8.31566 3.51225
head 7.71826 -3.93646 0.999406
rclavicle 2.56184e-014 -5.1684e-015
rhumerus -41.3579 -8.4935 -78.4756
rradius 19.1237
rwrist 14.8524
rhand -8.39567 19.588
rfingers 7.12502
rthumb 17.5281 -9.64178
lclavicle 2.56184e-014 -5.1684e-015
lhumerus -40.3542 5.3754 85.5698
lradius 20.616
lwrist -4.73424
lhand -4.39784 19.1694
lfingers 7.12502
lthumb 21.3719 48.0108
rfemur -23.2281 14.3677 22.0186
rtibia 34.7916
rfoot -12.666 -10.0116
rtoes 38.9939
lfemur -10.5873 0.943074 -19.6879
ltibia 64.1287
lfoot 13.0396 1.48346
ltoes 5.53464
218
root -1.38791 16.3487 -8.61583 1.45305 3.13885 1.30057
lowerback 13.2119 -0.176096 -6.28279
upperback -4.39458 -1.1094 2.35478
thorax -12.1611 0.0785824 6.43798
lowerneck -9.69893 -6.07981 -3.97751
upperneck 18.5931 -8.42701 3.64867
head 7.64499 -3.9799 1.03634
rclavicle -2.80038e-014 2.14687e-014
rhumerus -41.194 -7.8889 -78.8399
rradius 19.6147
rwrist 14.0306
rhand -8.80542 19.8782
rfingers 7.12502
rthumb 17.1337 -9.38637
lclavicle -2.80038e-014 2.14687e-014
lhumerus -40.3364 5.08441 85.7086
lradius 20.5204
lwrist -4.8389
lhand -4.47543 18.6447
lfingers 7.12502
lthumb 21.2973 47.4945
rfemur -22.7462 14.3853 22.2755
rtibia 34.6052
rfoot -13.0081 -10.0635
rtoes 38.8074
lfemur -12.3912 1.44058 -19.4541
ltibia 66.3288
lfoot 12.3576 1.34035
ltoes 5.19957
219
root -1.41093 16.3596 -8.50102 1.37972 3.21175 1.34096
lowerback 13.2685 -0.0619452 -6.40398
upperback -4.29362 -0.983428 2.3165
thorax -12.0999 0.14 6.43483
lowerneck -9.94044 -6.16771 -3.97982
upperneck 18.771 -8.56599 3.73649
head 7.75683 -4.03158 1.04079
rclavicle -7.1314e-015 -3.97569e-016
rhumerus -40.7872 -7.55212 -79.0627
rradius 19.8713
rwrist 13.7417
rhand -9.15898 19.7493
rfingers 7.12502
rthumb 16.7934 -9.54441
lclavicle -7.1314e-015 -3.97569e-016
lhumerus -40.2662 4.75057 85.866
lradius 20.4723
lwrist -4.77899
lhand -4.71046 17.9903
lfingers 7.12502
lthumb 21.0716 46.8654
rfemur -22.0232 14.311 22.4817
rtibia 34.4065
rfoot -13.3202 -9.98933
rtoes 38.7199
lfemur -14.114 1.85944 -19.3961
ltibia 68.3034
lfoot 11.4861 1.17767
ltoes 6.27572
220
root -1.43025 16.3694 -8.37926 1.25924 3.12441 1.38236
lowerback 13.3424 0.0618076 -6.52158
upperback -4.24177 -0.844231 2.29497
thorax -12.1079 0.212902 6.44748
lowerneck -10.0173 -6.1771 -4.11532
upperneck 19.0564 -8.56711 3.74285
head 7.87166 -4.03602 1.05859
rclavicle 1.31695e-015 2.78299e-015
rhumerus -40.4016 -7.38079 -79.0623
rradius 19.9391
rwrist 13.9793
rhand -9.19967 19.8633
rfingers 7.12502
rthumb 16.7542 -9.43382
lclavicle 1.31695e-015 2.78299e-015
lhumerus -40.3144 4.53857 86.0419
lradius 20.4625
lwrist -4.38091
lhand -4.89254 17.5078
lfingers 7.12502
lthumb 20.8967 46.4023
rfemur -21.2085 14.2929 22.704
rtibia 34.1516
rfoot -13.59 -9.80671
rtoes 38.3025
lfemur -15.6175 2.35528 -19.3932
ltibia 70.0177
lfoot 10.4961 1.02852
ltoes 7.33144
221
root -1.45149 16.3795 -8.26772 1.21834 3.11684 1.2727
lowerback 13.5222 0.168699 -6.44361
upperback -4.29686 -0.701229 2.27135
thorax -12.3032 0.284238 6.35035
lowerneck -9.86526 -6.22717 -4.18643
upperneck 19.2471 -8.64761 3.78775
head 7.91649 -4.07535 1.07882
rclavicle 1.33061e-014 -1.19271e-015
rhumerus -40.259 -7.23048 -79.0677
rradius 20.1886
rwrist 14.0278
rhand -8.80266 19.6917
rfingers 7.12502
rthumb 17.1364 -9.57256
lclavicle 1.33061e-014 -1.19271e-015
lhumerus -40.529 4.12553 86.3208
lradius 20.8483
lwrist -3.72526
lhand -4.84717 17.8565
lfingers 7.12502
lthumb 20.9402 46.7462
rfemur -20.5075 14.2731 23.0571
rtibia 33.8667
rfoot -14.0322 -9.51917
rtoes 38.7259
lfemur -17.3355 2.73337 -19.2442
ltibia 71.5943
lfoot 9.53289 1.16215
ltoes 8.60542
